<?xml version="1.0" encoding="utf-8"?>
<!-- Generator: Adobe Illustrator 14.0.0, SVG Export Plug-In . SVG Version: 6.00 Build 43363)  -->
<!DOCTYPE svg PUBLIC "-//W3C//DTD SVG 1.1//EN" "http://www.w3.org/Graphics/SVG/1.1/DTD/svg11.dtd">
<svg version="1.1" id="Layer_1" xmlns="http://www.w3.org/2000/svg" xmlns:xlink="http://www.w3.org/1999/xlink" x="0px" y="0px"
	 width="476px" height="1094px" viewBox="0 0 476 1094" enable-background="new 0 0 476 1094" xml:space="preserve">
<path fill-rule="evenodd" clip-rule="evenodd" d="M115.958,33.373c-0.031-1.311-0.322-6.932-3.045-7.975
	c-5.6-2.143-19.441-3.854-28.803-3.854c-9.363,0-23.205,1.711-28.807,3.854c-2.723,1.044-3.012,6.672-3.043,7.979
	c-0.046,0.381-0.041,0.754,0.023,1.09l0.532,2.67c0.282,1.461,1.695,2.416,3.157,2.133l12.281-2.379
	c1.461-0.281,2.416-1.695,2.135-3.156l-0.639-3.296c1.133-0.157,2.269-0.308,3.394-0.444l-0.366,5.334
	c0,0-18.319,9.766-18.319,13.395c0,3.63,0,17.732,0,17.732H84.11h29.649c0,0,0-14.221,0-17.732c0-3.51-18.318-13.395-18.318-13.395
	l-0.367-5.334c1.127,0.137,2.262,0.287,3.395,0.444l-0.637,3.296c-0.283,1.461,0.672,2.875,2.133,3.156l12.281,2.379
	c1.461,0.283,2.875-0.672,3.158-2.133l0.531-2.67C116,34.131,116.005,33.756,115.958,33.373z M84.11,29.176
	c1.139,0,5.504,0.205,6.799,0.369c0-0.023-0.424,5.27-0.434,5.254H84.11h-6.366l-0.395-5.258
	C79.818,29.313,82.132,29.176,84.11,29.176z M84.11,59.184c-4.729,0-8.563-3.566-8.563-7.967c0-4.398,3.835-7.965,8.563-7.965
	c4.729,0,8.563,3.566,8.563,7.965C92.673,55.617,88.839,59.184,84.11,59.184z"/>
<ellipse fill-rule="evenodd" clip-rule="evenodd" fill="#8C8C8C" cx="84.109" cy="51.216" rx="8.563" ry="7.966"/>
<path fill-rule="evenodd" clip-rule="evenodd" d="M426.376,33.373c-0.031-1.311-0.322-6.932-3.045-7.975
	c-5.6-2.143-19.441-3.854-28.804-3.854c-9.363,0-23.205,1.711-28.807,3.854c-2.723,1.044-3.012,6.672-3.043,7.979
	c-0.045,0.381-0.041,0.754,0.023,1.09l0.533,2.67c0.281,1.461,1.695,2.416,3.156,2.133l12.281-2.379
	c1.461-0.281,2.416-1.695,2.135-3.156l-0.639-3.296c1.133-0.157,2.27-0.308,3.395-0.444l-0.367,5.334
	c0,0-18.318,9.766-18.318,13.395c0,3.63,0,17.732,0,17.732h29.65h29.649c0,0,0-14.221,0-17.732c0-3.51-18.318-13.395-18.318-13.395
	l-0.367-5.334c1.127,0.137,2.262,0.287,3.395,0.444l-0.637,3.296c-0.283,1.461,0.672,2.875,2.133,3.156l12.281,2.379
	c1.461,0.283,2.875-0.672,3.158-2.133l0.531-2.67C426.417,34.131,426.423,33.756,426.376,33.373z M394.527,29.176
	c1.14,0,5.505,0.205,6.8,0.369c0-0.023-0.424,5.27-0.434,5.254h-6.366h-6.365l-0.395-5.258
	C390.236,29.313,392.549,29.176,394.527,29.176z M394.527,59.184c-4.729,0-8.562-3.566-8.562-7.967c0-4.398,3.834-7.965,8.562-7.965
	c4.729,0,8.563,3.566,8.563,7.965C403.091,55.617,399.257,59.184,394.527,59.184z"/>
<ellipse fill-rule="evenodd" clip-rule="evenodd" fill="#8C8C8C" cx="394.527" cy="51.216" rx="8.564" ry="7.966"/>
<line fill="none" stroke="#000000" stroke-width="4" x1="92.673" y1="51.217" x2="383.688" y2="51.217"/>
<polygon fill="#FFFFFF" stroke="#000000" stroke-width="3" points="121.443,542.901 48.789,319.294 239,181.098 429.211,319.294 
	356.557,542.901 "/>
<line fill="none" stroke="#000000" stroke-width="3" x1="239" y1="181.098" x2="356.557" y2="542.901"/>
<line fill="none" stroke="#000000" stroke-width="3" x1="239" y1="181.098" x2="121.443" y2="542.901"/>
<line fill="none" stroke="#000000" stroke-width="3" x1="121.443" y1="542.901" x2="429.211" y2="319.294"/>
<line fill="none" stroke="#000000" stroke-width="3" x1="429.211" y1="319.294" x2="48.789" y2="319.294"/>
<line fill="none" stroke="#000000" stroke-width="3" x1="48.789" y1="319.294" x2="356.557" y2="542.901"/>
<path fill-rule="evenodd" clip-rule="evenodd" d="M270.849,163.874c-0.031-1.311-0.322-6.932-3.045-7.975
	c-5.6-2.143-19.441-3.854-28.803-3.854c-9.363,0-23.205,1.711-28.807,3.854c-2.723,1.044-3.012,6.672-3.043,7.979
	c-0.046,0.381-0.041,0.754,0.023,1.09l0.532,2.67c0.282,1.461,1.695,2.416,3.157,2.133l12.281-2.379
	c1.461-0.281,2.416-1.695,2.135-3.156l-0.639-3.296c1.133-0.157,2.269-0.308,3.394-0.444l-0.366,5.334
	c0,0-18.319,9.766-18.319,13.395c0,3.63,0,17.732,0,17.732H239h29.649c0,0,0-14.221,0-17.732c0-3.51-18.318-13.395-18.318-13.395
	l-0.367-5.334c1.127,0.137,2.262,0.287,3.395,0.444l-0.637,3.296c-0.283,1.461,0.672,2.875,2.133,3.156l12.281,2.379
	c1.461,0.283,2.875-0.672,3.158-2.133l0.531-2.67C270.89,164.631,270.896,164.256,270.849,163.874z M239,159.676
	c1.139,0,5.504,0.205,6.799,0.369c0-0.023-0.424,5.27-0.434,5.254H239h-6.366l-0.395-5.258
	C234.708,159.814,237.022,159.676,239,159.676z M239,189.684c-4.729,0-8.563-3.566-8.563-7.967c0-4.398,3.835-7.965,8.563-7.965
	c4.729,0,8.563,3.566,8.563,7.965C247.563,186.118,243.729,189.684,239,189.684z"/>
<ellipse fill-rule="evenodd" clip-rule="evenodd" fill="#8C8C8C" cx="239" cy="181.716" rx="8.563" ry="7.966"/>
<path fill-rule="evenodd" clip-rule="evenodd" d="M461.061,301.894c-0.031-1.311-0.322-6.932-3.045-7.975
	c-5.6-2.143-19.441-3.854-28.803-3.854c-9.363,0-23.205,1.711-28.807,3.854c-2.723,1.044-3.012,6.672-3.043,7.979
	c-0.047,0.381-0.041,0.754,0.023,1.09l0.531,2.67c0.283,1.461,1.695,2.416,3.158,2.133l12.281-2.379
	c1.461-0.281,2.416-1.695,2.135-3.156l-0.639-3.296c1.133-0.157,2.268-0.308,3.393-0.444l-0.365,5.334c0,0-18.32,9.766-18.32,13.395
	c0,3.63,0,17.732,0,17.732h29.652h29.648c0,0,0-14.221,0-17.732c0-3.51-18.318-13.395-18.318-13.395l-0.367-5.334
	c1.127,0.137,2.262,0.287,3.395,0.444l-0.637,3.296c-0.283,1.461,0.672,2.875,2.133,3.156l12.281,2.379
	c1.461,0.283,2.875-0.672,3.158-2.133l0.531-2.67C461.102,302.652,461.107,302.277,461.061,301.894z M429.213,297.697
	c1.139,0,5.504,0.205,6.799,0.369c0-0.023-0.424,5.27-0.434,5.254h-6.365h-6.367l-0.395-5.258
	C424.92,297.834,427.234,297.697,429.213,297.697z M429.213,327.705c-4.729,0-8.564-3.566-8.564-7.967
	c0-4.398,3.836-7.965,8.564-7.965s8.562,3.566,8.562,7.965C437.775,324.138,433.941,327.705,429.213,327.705z"/>
<ellipse fill-rule="evenodd" clip-rule="evenodd" fill="#8C8C8C" cx="429.211" cy="319.737" rx="8.562" ry="7.966"/>
<path fill-rule="evenodd" clip-rule="evenodd" d="M388.406,523.77c-0.031-1.311-0.322-6.932-3.045-7.975
	c-5.6-2.143-19.441-3.854-28.803-3.854c-9.363,0-23.205,1.711-28.807,3.854c-2.723,1.044-3.012,6.672-3.043,7.979
	c-0.047,0.381-0.041,0.754,0.023,1.09l0.531,2.67c0.283,1.461,1.695,2.416,3.158,2.133l12.281-2.379
	c1.461-0.281,2.416-1.695,2.135-3.156l-0.639-3.296c1.133-0.157,2.268-0.308,3.393-0.444l-0.365,5.334c0,0-18.32,9.766-18.32,13.395
	c0,3.63,0,17.732,0,17.732h29.652h29.648c0,0,0-14.221,0-17.732c0-3.51-18.318-13.395-18.318-13.395l-0.367-5.334
	c1.127,0.137,2.262,0.287,3.395,0.444l-0.637,3.296c-0.283,1.461,0.672,2.875,2.133,3.156l12.281,2.379
	c1.461,0.283,2.875-0.672,3.158-2.133l0.531-2.67C388.447,524.527,388.453,524.152,388.406,523.77z M356.559,519.572
	c1.139,0,5.504,0.205,6.799,0.369c0-0.023-0.424,5.27-0.434,5.254h-6.365h-6.367l-0.395-5.258
	C352.266,519.71,354.58,519.572,356.559,519.572z M356.559,549.58c-4.729,0-8.564-3.566-8.564-7.967
	c0-4.398,3.836-7.965,8.564-7.965s8.562,3.566,8.562,7.965C365.121,546.014,361.287,549.58,356.559,549.58z"/>
<ellipse fill-rule="evenodd" clip-rule="evenodd" fill="#8C8C8C" cx="356.557" cy="541.612" rx="8.562" ry="7.966"/>
<path fill-rule="evenodd" clip-rule="evenodd" d="M153.292,523.77c-0.031-1.311-0.322-6.932-3.045-7.975
	c-5.6-2.143-19.441-3.854-28.803-3.854c-9.363,0-23.205,1.711-28.807,3.854c-2.723,1.044-3.012,6.672-3.043,7.979
	c-0.046,0.381-0.041,0.754,0.023,1.09l0.532,2.67c0.282,1.461,1.695,2.416,3.157,2.133l12.281-2.379
	c1.461-0.281,2.416-1.695,2.135-3.156l-0.639-3.296c1.133-0.157,2.269-0.308,3.394-0.444l-0.366,5.334
	c0,0-18.319,9.766-18.319,13.395c0,3.63,0,17.732,0,17.732h29.651h29.649c0,0,0-14.221,0-17.732c0-3.51-18.318-13.395-18.318-13.395
	l-0.367-5.334c1.127,0.137,2.262,0.287,3.395,0.444l-0.637,3.296c-0.283,1.461,0.672,2.875,2.133,3.156l12.281,2.379
	c1.461,0.283,2.875-0.672,3.158-2.133l0.531-2.67C153.333,524.527,153.338,524.152,153.292,523.77z M121.443,519.572
	c1.139,0,5.504,0.205,6.799,0.369c0-0.023-0.424,5.27-0.434,5.254h-6.366h-6.366l-0.395-5.258
	C117.151,519.71,119.465,519.572,121.443,519.572z M121.443,549.58c-4.729,0-8.563-3.566-8.563-7.967
	c0-4.398,3.835-7.965,8.563-7.965c4.729,0,8.563,3.566,8.563,7.965C130.006,546.014,126.172,549.58,121.443,549.58z"/>
<ellipse fill-rule="evenodd" clip-rule="evenodd" fill="#8C8C8C" cx="121.442" cy="541.612" rx="8.563" ry="7.966"/>
<path fill-rule="evenodd" clip-rule="evenodd" d="M80.637,301.894c-0.031-1.311-0.322-6.932-3.045-7.975
	c-5.6-2.143-19.441-3.854-28.803-3.854c-9.363,0-23.205,1.711-28.807,3.854c-2.723,1.044-3.012,6.672-3.043,7.979
	c-0.046,0.381-0.041,0.754,0.023,1.09l0.532,2.67c0.282,1.461,1.695,2.416,3.157,2.133l12.281-2.379
	c1.461-0.281,2.416-1.695,2.135-3.156l-0.639-3.296c1.133-0.157,2.269-0.308,3.394-0.444l-0.366,5.334
	c0,0-18.319,9.766-18.319,13.395c0,3.63,0,17.732,0,17.732h29.651h29.649c0,0,0-14.221,0-17.732c0-3.51-18.318-13.395-18.318-13.395
	l-0.367-5.334c1.127,0.137,2.262,0.287,3.395,0.444l-0.637,3.296c-0.283,1.461,0.672,2.875,2.133,3.156l12.281,2.379
	c1.461,0.283,2.875-0.672,3.158-2.133l0.531-2.67C80.678,302.652,80.684,302.277,80.637,301.894z M48.789,297.697
	c1.139,0,5.504,0.205,6.799,0.369c0-0.023-0.424,5.27-0.434,5.254h-6.366h-6.366l-0.395-5.258
	C44.497,297.834,46.811,297.697,48.789,297.697z M48.789,327.705c-4.729,0-8.563-3.566-8.563-7.967c0-4.398,3.835-7.965,8.563-7.965
	c4.729,0,8.563,3.566,8.563,7.965C57.352,324.138,53.518,327.705,48.789,327.705z"/>
<ellipse fill-rule="evenodd" clip-rule="evenodd" fill="#8C8C8C" cx="48.788" cy="319.737" rx="8.563" ry="7.966"/>
<polygon fill="#FFFFFF" stroke="#000000" stroke-width="2" points="187.236,1044.185 97.578,992.421 45.814,902.764 45.814,799.236 
	97.578,709.578 187.236,657.814 290.763,657.814 380.421,709.578 432.185,799.236 432.185,902.764 380.421,992.421 
	290.763,1044.185 "/>
<line fill="none" stroke="#000000" stroke-width="2" x1="97.578" y1="709.578" x2="290.763" y2="657.814"/>
<line fill="none" stroke="#000000" stroke-width="2" x1="97.578" y1="709.578" x2="380.421" y2="709.578"/>
<line fill="none" stroke="#000000" stroke-width="2" x1="97.578" y1="709.578" x2="432.185" y2="799.236"/>
<line fill="none" stroke="#000000" stroke-width="2" x1="97.578" y1="709.578" x2="432.185" y2="902.764"/>
<line fill="none" stroke="#000000" stroke-width="2" x1="97.578" y1="709.578" x2="380.421" y2="992.421"/>
<line fill="none" stroke="#000000" stroke-width="2" x1="97.578" y1="709.578" x2="290.763" y2="1044.185"/>
<line fill="none" stroke="#000000" stroke-width="2" x1="97.578" y1="709.578" x2="187.236" y2="1044.185"/>
<line fill="none" stroke="#000000" stroke-width="2" x1="97.578" y1="709.578" x2="97.578" y2="992.421"/>
<line fill="none" stroke="#000000" stroke-width="2" x1="97.578" y1="709.578" x2="45.814" y2="902.764"/>
<line fill="none" stroke="#000000" stroke-width="2" x1="187.236" y1="657.814" x2="380.421" y2="709.578"/>
<line fill="none" stroke="#000000" stroke-width="2" x1="187.236" y1="657.814" x2="432.185" y2="799.236"/>
<line fill="none" stroke="#000000" stroke-width="2" x1="187.236" y1="657.814" x2="432.185" y2="902.764"/>
<line fill="none" stroke="#000000" stroke-width="2" x1="187.236" y1="657.814" x2="380.421" y2="992.421"/>
<line fill="none" stroke="#000000" stroke-width="2" x1="187.236" y1="657.814" x2="290.763" y2="1044.185"/>
<line fill="none" stroke="#000000" stroke-width="2" x1="187.236" y1="657.814" x2="187.236" y2="1044.185"/>
<line fill="none" stroke="#000000" stroke-width="2" x1="187.236" y1="657.814" x2="97.578" y2="992.421"/>
<line fill="none" stroke="#000000" stroke-width="2" x1="187.236" y1="657.814" x2="45.814" y2="902.764"/>
<line fill="none" stroke="#000000" stroke-width="2" x1="187.236" y1="657.814" x2="45.814" y2="799.236"/>
<line fill="none" stroke="#000000" stroke-width="2" x1="290.763" y1="657.814" x2="432.185" y2="799.236"/>
<line fill="none" stroke="#000000" stroke-width="2" x1="290.763" y1="657.814" x2="432.185" y2="902.764"/>
<line fill="none" stroke="#000000" stroke-width="2" x1="290.763" y1="657.814" x2="380.421" y2="992.421"/>
<line fill="none" stroke="#000000" stroke-width="2" x1="290.763" y1="657.814" x2="290.763" y2="1044.185"/>
<line fill="none" stroke="#000000" stroke-width="2" x1="290.763" y1="657.814" x2="187.236" y2="1044.185"/>
<line fill="none" stroke="#000000" stroke-width="2" x1="290.763" y1="657.814" x2="97.578" y2="992.421"/>
<line fill="none" stroke="#000000" stroke-width="2" x1="290.763" y1="657.814" x2="45.814" y2="902.764"/>
<line fill="none" stroke="#000000" stroke-width="2" x1="290.763" y1="657.814" x2="45.814" y2="799.236"/>
<line fill="none" stroke="#000000" stroke-width="2" x1="380.421" y1="709.578" x2="432.185" y2="902.764"/>
<line fill="none" stroke="#000000" stroke-width="2" x1="380.421" y1="709.578" x2="380.421" y2="992.421"/>
<line fill="none" stroke="#000000" stroke-width="2" x1="380.421" y1="709.578" x2="290.763" y2="1044.185"/>
<line fill="none" stroke="#000000" stroke-width="2" x1="380.421" y1="709.578" x2="187.236" y2="1044.185"/>
<line fill="none" stroke="#000000" stroke-width="2" x1="380.421" y1="709.578" x2="97.578" y2="992.421"/>
<line fill="none" stroke="#000000" stroke-width="2" x1="380.421" y1="709.578" x2="45.814" y2="902.764"/>
<line fill="none" stroke="#000000" stroke-width="2" x1="380.421" y1="709.578" x2="45.814" y2="799.236"/>
<line fill="none" stroke="#000000" stroke-width="2" x1="432.185" y1="799.236" x2="380.421" y2="992.421"/>
<line fill="none" stroke="#000000" stroke-width="2" x1="432.185" y1="799.236" x2="290.763" y2="1044.185"/>
<line fill="none" stroke="#000000" stroke-width="2" x1="432.185" y1="799.236" x2="187.236" y2="1044.185"/>
<line fill="none" stroke="#000000" stroke-width="2" x1="432.185" y1="799.236" x2="97.578" y2="992.421"/>
<line fill="none" stroke="#000000" stroke-width="2" x1="432.185" y1="799.236" x2="45.814" y2="902.764"/>
<line fill="none" stroke="#000000" stroke-width="2" x1="432.185" y1="799.236" x2="45.814" y2="799.236"/>
<line fill="none" stroke="#000000" stroke-width="2" x1="432.185" y1="902.764" x2="290.763" y2="1044.185"/>
<line fill="none" stroke="#000000" stroke-width="2" x1="432.185" y1="902.764" x2="187.236" y2="1044.185"/>
<line fill="none" stroke="#000000" stroke-width="2" x1="432.185" y1="902.764" x2="97.578" y2="992.421"/>
<line fill="none" stroke="#000000" stroke-width="2" x1="432.185" y1="902.764" x2="45.814" y2="902.764"/>
<line fill="none" stroke="#000000" stroke-width="2" x1="432.185" y1="902.764" x2="45.814" y2="799.236"/>
<line fill="none" stroke="#000000" stroke-width="2" x1="380.421" y1="992.421" x2="187.236" y2="1044.185"/>
<line fill="none" stroke="#000000" stroke-width="2" x1="380.421" y1="992.421" x2="97.578" y2="992.421"/>
<line fill="none" stroke="#000000" stroke-width="2" x1="380.421" y1="992.421" x2="45.814" y2="902.764"/>
<line fill="none" stroke="#000000" stroke-width="2" x1="380.421" y1="992.421" x2="45.814" y2="799.236"/>
<line fill="none" stroke="#000000" stroke-width="2" x1="290.763" y1="1044.185" x2="97.578" y2="992.421"/>
<line fill="none" stroke="#000000" stroke-width="2" x1="290.763" y1="1044.185" x2="45.814" y2="902.764"/>
<line fill="none" stroke="#000000" stroke-width="2" x1="290.763" y1="1044.185" x2="45.814" y2="799.236"/>
<line fill="none" stroke="#000000" stroke-width="2" x1="187.236" y1="1044.185" x2="45.814" y2="902.764"/>
<line fill="none" stroke="#000000" stroke-width="2" x1="187.236" y1="1044.185" x2="45.814" y2="799.236"/>
<line fill="none" stroke="#000000" stroke-width="2" x1="97.578" y1="992.421" x2="45.814" y2="799.236"/>
<path fill-rule="evenodd" clip-rule="evenodd" d="M412.27,972.176c-0.031-1.311-0.322-6.932-3.044-7.975
	c-5.601-2.143-19.442-3.854-28.804-3.854c-9.363,0-23.205,1.711-28.807,3.854c-2.723,1.044-3.012,6.672-3.043,7.979
	c-0.046,0.381-0.041,0.754,0.023,1.09l0.532,2.67c0.282,1.461,1.695,2.416,3.157,2.133l12.281-2.379
	c1.461-0.281,2.416-1.695,2.135-3.156l-0.639-3.296c1.133-0.157,2.269-0.308,3.394-0.444l-0.366,5.334
	c0,0-18.319,9.766-18.319,13.395c0,3.63,0,17.732,0,17.732h29.651h29.649c0,0,0-14.221,0-17.732c0-3.51-18.319-13.395-18.319-13.395
	l-0.366-5.334c1.126,0.137,2.262,0.287,3.395,0.444l-0.638,3.296c-0.283,1.461,0.672,2.875,2.133,3.156l12.281,2.379
	c1.462,0.283,2.875-0.672,3.158-2.133l0.532-2.67C412.312,972.934,412.316,972.559,412.27,972.176z M380.422,967.979
	c1.139,0,5.504,0.205,6.799,0.369c0-0.023-0.424,5.27-0.434,5.254h-6.365h-6.366l-0.395-5.258
	C376.13,968.116,378.443,967.979,380.422,967.979z M380.422,997.986c-4.729,0-8.563-3.566-8.563-7.967
	c0-4.398,3.835-7.965,8.563-7.965c4.729,0,8.563,3.566,8.563,7.965C388.985,994.42,385.151,997.986,380.422,997.986z"/>
<ellipse fill-rule="evenodd" clip-rule="evenodd" fill="#8C8C8C" cx="380.421" cy="990.019" rx="8.563" ry="7.966"/>
<path fill-rule="evenodd" clip-rule="evenodd" d="M322.611,1026.676c-0.031-1.311-0.322-6.932-3.044-7.975
	c-5.601-2.143-19.442-3.854-28.804-3.854c-9.363,0-23.205,1.711-28.807,3.854c-2.723,1.044-3.012,6.672-3.043,7.979
	c-0.046,0.381-0.041,0.754,0.023,1.09l0.532,2.67c0.282,1.461,1.695,2.416,3.157,2.133l12.281-2.379
	c1.461-0.281,2.416-1.695,2.135-3.156l-0.639-3.296c1.133-0.157,2.269-0.308,3.394-0.444l-0.366,5.334
	c0,0-18.319,9.766-18.319,13.395c0,3.63,0,17.732,0,17.732h29.651h29.649c0,0,0-14.221,0-17.732c0-3.51-18.319-13.395-18.319-13.395
	l-0.366-5.334c1.126,0.137,2.262,0.287,3.395,0.444l-0.638,3.296c-0.283,1.461,0.672,2.875,2.133,3.156l12.281,2.379
	c1.462,0.283,2.875-0.672,3.158-2.133l0.532-2.67C322.653,1027.434,322.658,1027.059,322.611,1026.676z M290.764,1022.479
	c1.139,0,5.504,0.205,6.799,0.369c0-0.023-0.424,5.27-0.434,5.254h-6.365h-6.366l-0.395-5.258
	C286.472,1022.616,288.785,1022.479,290.764,1022.479z M290.764,1052.486c-4.729,0-8.563-3.566-8.563-7.967
	c0-4.398,3.835-7.965,8.563-7.965c4.729,0,8.563,3.566,8.563,7.965C299.327,1048.92,295.493,1052.486,290.764,1052.486z"/>
<ellipse fill-rule="evenodd" clip-rule="evenodd" fill="#8C8C8C" cx="290.763" cy="1044.519" rx="8.563" ry="7.966"/>
<path fill-rule="evenodd" clip-rule="evenodd" d="M219.084,1026.676c-0.031-1.311-0.322-6.932-3.044-7.975
	c-5.601-2.143-19.442-3.854-28.804-3.854c-9.363,0-23.205,1.711-28.807,3.854c-2.723,1.044-3.012,6.672-3.043,7.979
	c-0.046,0.381-0.041,0.754,0.023,1.09l0.532,2.67c0.282,1.461,1.695,2.416,3.157,2.133l12.281-2.379
	c1.461-0.281,2.416-1.695,2.135-3.156l-0.639-3.296c1.133-0.157,2.269-0.308,3.394-0.444l-0.366,5.334
	c0,0-18.319,9.766-18.319,13.395c0,3.63,0,17.732,0,17.732h29.651h29.649c0,0,0-14.221,0-17.732c0-3.51-18.319-13.395-18.319-13.395
	l-0.366-5.334c1.126,0.137,2.262,0.287,3.395,0.444l-0.638,3.296c-0.283,1.461,0.672,2.875,2.133,3.156l12.281,2.379
	c1.462,0.283,2.875-0.672,3.158-2.133l0.532-2.67C219.126,1027.434,219.131,1027.059,219.084,1026.676z M187.236,1022.479
	c1.139,0,5.504,0.205,6.799,0.369c0-0.023-0.424,5.27-0.434,5.254h-6.365h-6.366l-0.395-5.258
	C182.944,1022.616,185.258,1022.479,187.236,1022.479z M187.236,1052.486c-4.729,0-8.563-3.566-8.563-7.967
	c0-4.398,3.835-7.965,8.563-7.965c4.729,0,8.563,3.566,8.563,7.965C195.8,1048.92,191.966,1052.486,187.236,1052.486z"/>
<ellipse fill-rule="evenodd" clip-rule="evenodd" fill="#8C8C8C" cx="187.235" cy="1044.519" rx="8.563" ry="7.966"/>
<path fill-rule="evenodd" clip-rule="evenodd" d="M129.426,974.676c-0.031-1.311-0.322-6.932-3.044-7.975
	c-5.601-2.143-19.442-3.854-28.804-3.854c-9.363,0-23.205,1.711-28.807,3.854c-2.723,1.044-3.012,6.672-3.043,7.979
	c-0.046,0.381-0.041,0.754,0.023,1.09l0.532,2.67c0.282,1.461,1.695,2.416,3.157,2.133l12.281-2.379
	c1.461-0.281,2.416-1.695,2.135-3.156l-0.639-3.296c1.133-0.157,2.269-0.308,3.394-0.444l-0.366,5.334
	c0,0-18.319,9.766-18.319,13.395c0,3.63,0,17.732,0,17.732h29.651h29.649c0,0,0-14.221,0-17.732c0-3.51-18.319-13.395-18.319-13.395
	l-0.366-5.334c1.126,0.137,2.262,0.287,3.395,0.444l-0.638,3.296c-0.283,1.461,0.672,2.875,2.133,3.156l12.281,2.379
	c1.462,0.283,2.875-0.672,3.158-2.133l0.532-2.67C129.468,975.434,129.473,975.059,129.426,974.676z M97.579,970.479
	c1.139,0,5.504,0.205,6.799,0.369c0-0.023-0.424,5.27-0.434,5.254h-6.365h-6.366l-0.395-5.258
	C93.287,970.616,95.6,970.479,97.579,970.479z M97.579,1000.486c-4.729,0-8.563-3.566-8.563-7.967c0-4.398,3.835-7.965,8.563-7.965
	c4.729,0,8.563,3.566,8.563,7.965C106.142,996.92,102.308,1000.486,97.579,1000.486z"/>
<ellipse fill-rule="evenodd" clip-rule="evenodd" fill="#8C8C8C" cx="97.578" cy="992.519" rx="8.563" ry="7.966"/>
<path fill-rule="evenodd" clip-rule="evenodd" d="M77.663,885.201c-0.031-1.311-0.322-6.932-3.044-7.975
	c-5.601-2.143-19.442-3.854-28.804-3.854c-9.363,0-23.205,1.711-28.807,3.854c-2.723,1.044-3.012,6.672-3.043,7.979
	c-0.046,0.381-0.041,0.754,0.023,1.09l0.532,2.67c0.282,1.461,1.695,2.416,3.157,2.133l12.281-2.379
	c1.461-0.281,2.416-1.695,2.135-3.156l-0.639-3.296c1.133-0.157,2.269-0.308,3.394-0.444l-0.366,5.334
	c0,0-18.319,9.766-18.319,13.395c0,3.63,0,17.732,0,17.732h29.651h29.649c0,0,0-14.221,0-17.732c0-3.51-18.319-13.395-18.319-13.395
	l-0.366-5.334c1.126,0.137,2.262,0.287,3.395,0.444l-0.638,3.296c-0.283,1.461,0.672,2.875,2.133,3.156l12.281,2.379
	c1.462,0.283,2.875-0.672,3.158-2.133l0.532-2.67C77.705,885.959,77.709,885.584,77.663,885.201z M45.815,881.004
	c1.139,0,5.504,0.205,6.799,0.369c0-0.023-0.424,5.27-0.434,5.254h-6.365h-6.366l-0.395-5.258
	C41.523,881.142,43.836,881.004,45.815,881.004z M45.815,911.012c-4.729,0-8.563-3.566-8.563-7.967c0-4.398,3.835-7.965,8.563-7.965
	c4.729,0,8.563,3.566,8.563,7.965C54.378,907.445,50.544,911.012,45.815,911.012z"/>
<ellipse fill-rule="evenodd" clip-rule="evenodd" fill="#8C8C8C" cx="45.814" cy="903.044" rx="8.563" ry="7.966"/>
<path fill-rule="evenodd" clip-rule="evenodd" d="M77.662,779.676c-0.031-1.311-0.322-6.932-3.044-7.975
	c-5.601-2.143-19.442-3.854-28.804-3.854c-9.363,0-23.205,1.711-28.807,3.854c-2.723,1.044-3.012,6.672-3.043,7.979
	c-0.046,0.381-0.041,0.754,0.023,1.09l0.532,2.67c0.282,1.461,1.695,2.416,3.157,2.133l12.281-2.379
	c1.461-0.281,2.416-1.695,2.135-3.156l-0.639-3.296c1.133-0.157,2.269-0.308,3.394-0.444l-0.366,5.334
	c0,0-18.319,9.766-18.319,13.395c0,3.63,0,17.732,0,17.732h29.651h29.649c0,0,0-14.221,0-17.732c0-3.51-18.319-13.395-18.319-13.395
	l-0.366-5.334c1.126,0.137,2.262,0.287,3.395,0.444l-0.638,3.296c-0.283,1.461,0.672,2.875,2.133,3.156l12.281,2.379
	c1.462,0.283,2.875-0.672,3.158-2.133l0.532-2.67C77.704,780.434,77.709,780.059,77.662,779.676z M45.814,775.479
	c1.139,0,5.504,0.205,6.799,0.369c0-0.023-0.424,5.27-0.434,5.254h-6.365h-6.366l-0.395-5.258
	C41.522,775.616,43.836,775.479,45.814,775.479z M45.814,805.486c-4.729,0-8.563-3.566-8.563-7.967c0-4.398,3.835-7.965,8.563-7.965
	c4.729,0,8.563,3.566,8.563,7.965C54.378,801.92,50.544,805.486,45.814,805.486z"/>
<ellipse fill-rule="evenodd" clip-rule="evenodd" fill="#8C8C8C" cx="45.813" cy="797.519" rx="8.563" ry="7.966"/>
<path fill-rule="evenodd" clip-rule="evenodd" d="M129.426,691.176c-0.031-1.311-0.322-6.932-3.044-7.975
	c-5.601-2.143-19.442-3.854-28.804-3.854c-9.363,0-23.205,1.711-28.807,3.854c-2.723,1.044-3.012,6.672-3.043,7.979
	c-0.046,0.381-0.041,0.754,0.023,1.09l0.532,2.67c0.282,1.461,1.695,2.416,3.157,2.133l12.281-2.379
	c1.461-0.281,2.416-1.695,2.135-3.156l-0.639-3.296c1.133-0.157,2.269-0.308,3.394-0.444l-0.366,5.334
	c0,0-18.319,9.766-18.319,13.395c0,3.63,0,17.732,0,17.732h29.651h29.649c0,0,0-14.221,0-17.732c0-3.51-18.319-13.395-18.319-13.395
	l-0.366-5.334c1.126,0.137,2.262,0.287,3.395,0.444l-0.638,3.296c-0.283,1.461,0.672,2.875,2.133,3.156l12.281,2.379
	c1.462,0.283,2.875-0.672,3.158-2.133l0.532-2.67C129.468,691.934,129.473,691.559,129.426,691.176z M97.578,686.979
	c1.139,0,5.504,0.205,6.799,0.369c0-0.023-0.424,5.27-0.434,5.254h-6.365h-6.366l-0.395-5.258
	C93.286,687.116,95.6,686.979,97.578,686.979z M97.578,716.986c-4.729,0-8.563-3.566-8.563-7.967c0-4.398,3.835-7.965,8.563-7.965
	c4.729,0,8.563,3.566,8.563,7.965C106.142,713.42,102.308,716.986,97.578,716.986z"/>
<ellipse fill-rule="evenodd" clip-rule="evenodd" fill="#8C8C8C" cx="97.577" cy="709.019" rx="8.563" ry="7.966"/>
<path fill-rule="evenodd" clip-rule="evenodd" d="M219.083,640.373c-0.031-1.311-0.322-6.932-3.044-7.975
	c-5.601-2.143-19.442-3.854-28.804-3.854c-9.363,0-23.205,1.711-28.807,3.854c-2.723,1.044-3.012,6.672-3.043,7.979
	c-0.046,0.381-0.041,0.754,0.023,1.09l0.532,2.67c0.282,1.461,1.695,2.416,3.157,2.133l12.281-2.379
	c1.461-0.281,2.416-1.695,2.135-3.156l-0.639-3.296c1.133-0.157,2.269-0.308,3.394-0.444l-0.366,5.334
	c0,0-18.319,9.766-18.319,13.395c0,3.63,0,17.732,0,17.732h29.651h29.649c0,0,0-14.221,0-17.732c0-3.51-18.319-13.395-18.319-13.395
	l-0.366-5.334c1.126,0.137,2.262,0.287,3.395,0.444l-0.638,3.296c-0.283,1.461,0.672,2.875,2.133,3.156l12.281,2.379
	c1.462,0.283,2.875-0.672,3.158-2.133l0.532-2.67C219.125,641.131,219.13,640.756,219.083,640.373z M187.236,636.176
	c1.139,0,5.504,0.205,6.799,0.369c0-0.023-0.424,5.27-0.434,5.254h-6.365h-6.366l-0.395-5.258
	C182.944,636.313,185.257,636.176,187.236,636.176z M187.236,666.184c-4.729,0-8.563-3.566-8.563-7.967
	c0-4.398,3.835-7.965,8.563-7.965c4.729,0,8.563,3.566,8.563,7.965C195.799,662.617,191.965,666.184,187.236,666.184z"/>
<ellipse fill-rule="evenodd" clip-rule="evenodd" fill="#8C8C8C" cx="187.235" cy="658.216" rx="8.563" ry="7.966"/>
<path fill-rule="evenodd" clip-rule="evenodd" d="M322.611,640.373c-0.031-1.311-0.322-6.932-3.044-7.975
	c-5.601-2.143-19.442-3.854-28.804-3.854c-9.363,0-23.205,1.711-28.807,3.854c-2.723,1.044-3.012,6.672-3.043,7.979
	c-0.046,0.381-0.041,0.754,0.023,1.09l0.532,2.67c0.282,1.461,1.695,2.416,3.157,2.133l12.281-2.379
	c1.461-0.281,2.416-1.695,2.135-3.156l-0.639-3.296c1.133-0.157,2.269-0.308,3.394-0.444l-0.366,5.334
	c0,0-18.319,9.766-18.319,13.395c0,3.63,0,17.732,0,17.732h29.651h29.649c0,0,0-14.221,0-17.732c0-3.51-18.319-13.395-18.319-13.395
	l-0.366-5.334c1.126,0.137,2.262,0.287,3.395,0.444l-0.638,3.296c-0.283,1.461,0.672,2.875,2.133,3.156l12.281,2.379
	c1.462,0.283,2.875-0.672,3.158-2.133l0.532-2.67C322.653,641.131,322.658,640.756,322.611,640.373z M290.764,636.176
	c1.139,0,5.504,0.205,6.799,0.369c0-0.023-0.424,5.27-0.434,5.254h-6.365h-6.366l-0.395-5.258
	C286.472,636.313,288.785,636.176,290.764,636.176z M290.764,666.184c-4.729,0-8.563-3.566-8.563-7.967
	c0-4.398,3.835-7.965,8.563-7.965c4.729,0,8.563,3.566,8.563,7.965C299.327,662.617,295.493,666.184,290.764,666.184z"/>
<ellipse fill-rule="evenodd" clip-rule="evenodd" fill="#8C8C8C" cx="290.763" cy="658.216" rx="8.563" ry="7.966"/>
<path fill-rule="evenodd" clip-rule="evenodd" d="M412.27,691.176c-0.031-1.311-0.322-6.932-3.044-7.975
	c-5.601-2.143-19.442-3.854-28.804-3.854c-9.363,0-23.205,1.711-28.807,3.854c-2.723,1.044-3.012,6.672-3.043,7.979
	c-0.046,0.381-0.041,0.754,0.023,1.09l0.532,2.67c0.282,1.461,1.695,2.416,3.157,2.133l12.281-2.379
	c1.461-0.281,2.416-1.695,2.135-3.156l-0.639-3.296c1.133-0.157,2.269-0.308,3.394-0.444l-0.366,5.334
	c0,0-18.319,9.766-18.319,13.395c0,3.63,0,17.732,0,17.732h29.651h29.649c0,0,0-14.221,0-17.732c0-3.51-18.319-13.395-18.319-13.395
	l-0.366-5.334c1.126,0.137,2.262,0.287,3.395,0.444l-0.638,3.296c-0.283,1.461,0.672,2.875,2.133,3.156l12.281,2.379
	c1.462,0.283,2.875-0.672,3.158-2.133l0.532-2.67C412.312,691.934,412.316,691.559,412.27,691.176z M380.422,686.979
	c1.139,0,5.504,0.205,6.799,0.369c0-0.023-0.424,5.27-0.434,5.254h-6.365h-6.366l-0.395-5.258
	C376.13,687.116,378.443,686.979,380.422,686.979z M380.422,716.986c-4.729,0-8.563-3.566-8.563-7.967
	c0-4.398,3.835-7.965,8.563-7.965c4.729,0,8.563,3.566,8.563,7.965C388.985,713.42,385.151,716.986,380.422,716.986z"/>
<ellipse fill-rule="evenodd" clip-rule="evenodd" fill="#8C8C8C" cx="380.421" cy="709.019" rx="8.563" ry="7.966"/>
<path fill-rule="evenodd" clip-rule="evenodd" d="M464.033,779.676c-0.031-1.311-0.322-6.932-3.044-7.975
	c-5.601-2.143-19.442-3.854-28.804-3.854c-9.363,0-23.205,1.711-28.807,3.854c-2.723,1.044-3.012,6.672-3.043,7.979
	c-0.046,0.381-0.041,0.754,0.023,1.09l0.532,2.67c0.282,1.461,1.695,2.416,3.157,2.133l12.281-2.379
	c1.461-0.281,2.416-1.695,2.135-3.156l-0.639-3.296c1.133-0.157,2.269-0.308,3.394-0.444l-0.366,5.334
	c0,0-18.319,9.766-18.319,13.395c0,3.63,0,17.732,0,17.732h29.651h29.649c0,0,0-14.221,0-17.732c0-3.51-18.319-13.395-18.319-13.395
	l-0.366-5.334c1.126,0.137,2.262,0.287,3.395,0.444l-0.638,3.296c-0.283,1.461,0.672,2.875,2.133,3.156l12.281,2.379
	c1.462,0.283,2.875-0.672,3.158-2.133l0.532-2.67C464.075,780.434,464.08,780.059,464.033,779.676z M432.186,775.479
	c1.139,0,5.504,0.205,6.799,0.369c0-0.023-0.424,5.27-0.434,5.254h-6.365h-6.366l-0.395-5.258
	C427.894,775.616,430.207,775.479,432.186,775.479z M432.186,805.486c-4.729,0-8.563-3.566-8.563-7.967
	c0-4.398,3.835-7.965,8.563-7.965c4.729,0,8.563,3.566,8.563,7.965C440.749,801.92,436.915,805.486,432.186,805.486z"/>
<ellipse fill-rule="evenodd" clip-rule="evenodd" fill="#8C8C8C" cx="432.185" cy="797.519" rx="8.563" ry="7.966"/>
<path fill-rule="evenodd" clip-rule="evenodd" d="M464.033,885.201c-0.031-1.311-0.322-6.932-3.044-7.975
	c-5.601-2.143-19.442-3.854-28.804-3.854c-9.363,0-23.205,1.711-28.807,3.854c-2.723,1.044-3.012,6.672-3.043,7.979
	c-0.046,0.381-0.041,0.754,0.023,1.09l0.532,2.67c0.282,1.461,1.695,2.416,3.157,2.133l12.281-2.379
	c1.461-0.281,2.416-1.695,2.135-3.156l-0.639-3.296c1.133-0.157,2.269-0.308,3.394-0.444l-0.366,5.334
	c0,0-18.319,9.766-18.319,13.395c0,3.63,0,17.732,0,17.732h29.651h29.649c0,0,0-14.221,0-17.732c0-3.51-18.319-13.395-18.319-13.395
	l-0.366-5.334c1.126,0.137,2.262,0.287,3.395,0.444l-0.638,3.296c-0.283,1.461,0.672,2.875,2.133,3.156l12.281,2.379
	c1.462,0.283,2.875-0.672,3.158-2.133l0.532-2.67C464.075,885.959,464.08,885.584,464.033,885.201z M432.186,881.004
	c1.139,0,5.504,0.205,6.799,0.369c0-0.023-0.424,5.27-0.434,5.254h-6.365h-6.366l-0.395-5.258
	C427.894,881.142,430.207,881.004,432.186,881.004z M432.186,911.012c-4.729,0-8.563-3.566-8.563-7.967
	c0-4.398,3.835-7.965,8.563-7.965c4.729,0,8.563,3.566,8.563,7.965C440.749,907.445,436.915,911.012,432.186,911.012z"/>
<ellipse fill-rule="evenodd" clip-rule="evenodd" fill="#8C8C8C" cx="432.185" cy="903.044" rx="8.563" ry="7.966"/>
</svg>
